<?xml version="1.0" encoding="utf-8"?>
<!-- Generator: Adobe Illustrator 14.0.0, SVG Export Plug-In . SVG Version: 6.00 Build 43363)  -->
<!DOCTYPE svg PUBLIC "-//W3C//DTD SVG 1.1//EN" "http://www.w3.org/Graphics/SVG/1.1/DTD/svg11.dtd">
<svg version="1.1" id="Bold" xmlns="http://www.w3.org/2000/svg" xmlns:xlink="http://www.w3.org/1999/xlink" x="0px" y="0px"
	 width="512px" height="512px" viewBox="0 0 512 512" style="enable-background:new 0 0 512 512;" xml:space="preserve">
<style type="text/css">
<![CDATA[
	.st0{fill:#EBBA0C;}
]]>
</style>
<path class="st0" d="M64,512h192V336h-64v-80h64v-64c0-53.035,42.965-96,96-96h64v80h-32c-17.664,0-32-1.664-32,16v64h80l-32,80h-48
	v176h96c35.285,0,64-28.715,64-64V64c0-35.307-28.715-64-64-64H64C28.693,0,0,28.693,0,64v384C0,483.285,28.693,512,64,512z"/>
</svg>
