<?xml version="1.0" encoding="utf-8"?>
<!-- Generator: Adobe Illustrator 14.0.0, SVG Export Plug-In . SVG Version: 6.00 Build 43363)  -->
<!DOCTYPE svg PUBLIC "-//W3C//DTD SVG 1.1//EN" "http://www.w3.org/Graphics/SVG/1.1/DTD/svg11.dtd">
<svg version="1.1" id="Bold" xmlns="http://www.w3.org/2000/svg" xmlns:xlink="http://www.w3.org/1999/xlink" x="0px" y="0px"
	 width="512px" height="512px" viewBox="0 0 512 512" style="enable-background:new 0 0 512 512;" xml:space="preserve">
<style type="text/css">
<![CDATA[
	.st0{fill:#EBBA0C;}
]]>
</style>
<path class="st0" d="M256,10.667c-141.44,0-256,112.64-256,251.563c0,111.168,73.344,205.439,175.04,238.677
	c12.8,2.368,17.493-5.418,17.493-12.096c0-5.974-0.213-21.803-0.32-42.773c-71.211,15.168-86.229-33.749-86.229-33.749
	c-11.648-29.034-28.48-36.8-28.48-36.8c-23.189-15.595,1.792-15.275,1.792-15.275c25.707,1.75,39.211,25.92,39.211,25.92
	c22.827,38.465,59.925,27.35,74.56,20.929c2.304-16.277,8.896-27.35,16.213-33.643c-56.853-6.294-116.608-27.926-116.608-124.31
	c0-27.456,9.92-49.898,26.347-67.499c-2.88-6.357-11.52-31.936,2.24-66.582c0,0,21.44-6.741,70.4,25.792
	c20.48-5.589,42.24-8.362,64-8.491c21.759,0.128,43.52,2.901,64,8.491c48.641-32.533,70.08-25.792,70.08-25.792
	c13.761,34.646,5.12,60.224,2.561,66.582c16.32,17.6,26.24,40.042,26.24,67.499c0,96.641-59.841,117.909-116.801,124.096
	c8.96,7.553,17.28,22.977,17.28,46.55c0,33.664-0.32,60.715-0.32,68.885c0,6.593,4.48,14.464,17.601,11.947
	C438.72,467.563,512,373.227,512,262.229C512,123.307,397.376,10.667,256,10.667z"/>
</svg>
