<?xml version="1.0" encoding="utf-8"?>
<!-- Generator: Adobe Illustrator 14.0.0, SVG Export Plug-In . SVG Version: 6.00 Build 43363)  -->
<!DOCTYPE svg PUBLIC "-//W3C//DTD SVG 1.1//EN" "http://www.w3.org/Graphics/SVG/1.1/DTD/svg11.dtd">
<svg version="1.1" id="Capa_1" xmlns="http://www.w3.org/2000/svg" xmlns:xlink="http://www.w3.org/1999/xlink" x="0px" y="0px"
	 width="612px" height="792px" viewBox="0 0 612 792" style="enable-background:new 0 0 612 792;" xml:space="preserve">
<style type="text/css">
<![CDATA[
	.st0{fill:#EBBA0C;}
]]>
</style>
<g>
	<g>
		<path class="st0" d="M309.363,236.105c103.12,1.012,167.722-5.404,176.446,108.894h125.75
			c0-177.066-154.426-200.933-305.47-200.933c-151.057,0-305.47,23.867-305.47,200.933h124.773
			C135.046,228.522,207.099,235.105,309.363,236.105z"/>
		<path class="st0" d="M62.982,401.922c30.628,0,56.114,1.833,61.78-28.295c0.762-4.095,1.202-8.737,1.202-14.105h-1.452H0
			C0,404.339,28.2,401.922,62.982,401.922z"/>
		<path class="st0" d="M486.619,359.521h-1.178c0,5.404,0.464,10.059,1.333,14.105c5.976,27.783,31.425,26.058,61.946,26.058
			c34.949,0,63.279,2.297,63.279-40.163H486.619L486.619,359.521z"/>
		<path class="st0" d="M425.185,329v-17.808c0-7.963-9.178-8.463-20.51-8.463h-18.51c-11.32,0-20.498,0.5-20.498,8.463v15.344
			v11.903h-130.94v-11.903v-15.344c0-7.963-9.178-8.463-20.498-8.463h-18.522c-11.32,0-20.498,0.5-20.498,8.463V329v15.546
			c-29.83,30.997-127.44,162.948-130.987,178.923l0.048,106.597c0,9.845,8.011,17.855,17.855,17.855H538.27
			c9.844,0,17.855-8.011,17.855-17.855V522.935c-3.512-15.511-101.098-147.403-130.94-178.4V329z M228.275,537.813
			c-9.583,0-17.355-7.761-17.355-17.355c0-9.594,7.773-17.355,17.355-17.355s17.355,7.762,17.355,17.355
			C245.631,530.053,237.858,537.813,228.275,537.813z M228.275,478.296c-9.583,0-17.355-7.762-17.355-17.355
			c0-9.595,7.773-17.355,17.355-17.355s17.355,7.761,17.355,17.355C245.631,470.534,237.858,478.296,228.275,478.296z
			 M228.275,418.789c-9.583,0-17.355-7.761-17.355-17.355c0-9.582,7.773-17.355,17.355-17.355s17.355,7.773,17.355,17.355
			C245.631,411.028,237.858,418.789,228.275,418.789z M299.697,537.813c-9.583,0-17.355-7.761-17.355-17.355
			c0-9.594,7.773-17.355,17.355-17.355c9.594,0,17.355,7.762,17.355,17.355C317.053,530.053,309.291,537.813,299.697,537.813z
			 M299.697,478.296c-9.583,0-17.355-7.762-17.355-17.355c0-9.595,7.773-17.355,17.355-17.355c9.594,0,17.355,7.761,17.355,17.355
			C317.053,470.534,309.291,478.296,299.697,478.296z M299.697,418.789c-9.583,0-17.355-7.761-17.355-17.355
			c0-9.582,7.773-17.355,17.355-17.355c9.594,0,17.355,7.773,17.355,17.355C317.053,411.028,309.291,418.789,299.697,418.789z
			 M371.119,537.813c-9.595,0-17.355-7.761-17.355-17.355c0-9.594,7.761-17.355,17.355-17.355c9.594,0,17.355,7.762,17.355,17.355
			C388.475,530.053,380.713,537.813,371.119,537.813z M371.119,478.296c-9.595,0-17.355-7.762-17.355-17.355
			c0-9.595,7.761-17.355,17.355-17.355c9.594,0,17.355,7.761,17.355,17.355C388.475,470.534,380.713,478.296,371.119,478.296z
			 M371.119,418.789c-9.595,0-17.355-7.761-17.355-17.355c0-9.582,7.761-17.355,17.355-17.355c9.594,0,17.355,7.773,17.355,17.355
			C388.475,411.028,380.713,418.789,371.119,418.789z"/>
	</g>
</g>
</svg>
