<?xml version="1.0" encoding="utf-8"?>
<!-- Generator: Adobe Illustrator 14.0.0, SVG Export Plug-In . SVG Version: 6.00 Build 43363)  -->
<!DOCTYPE svg PUBLIC "-//W3C//DTD SVG 1.1//EN" "http://www.w3.org/Graphics/SVG/1.1/DTD/svg11.dtd">
<svg version="1.1" id="Bold" xmlns="http://www.w3.org/2000/svg" xmlns:xlink="http://www.w3.org/1999/xlink" x="0px" y="0px"
	 width="512px" height="512px" viewBox="0 0 512 512" style="enable-background:new 0 0 512 512;" xml:space="preserve">
<style type="text/css">
<![CDATA[
	.st0{fill:#EBBA0C;}
]]>
</style>
<path class="st0" d="M459.392,151.744c20.821-14.784,38.337-33.237,52.608-54.485v-0.021c-19.051,8.341-39.317,13.888-60.48,16.576
	c21.761-12.992,38.379-33.408,46.188-58.005c-20.288,12.096-42.688,20.629-66.561,25.408C411.883,60.693,384.427,48,354.475,48
	c-58.111,0-104.896,47.168-104.896,104.981c0,8.32,0.704,16.32,2.432,23.936c-87.253-4.267-164.48-46.08-216.363-109.803
	c-9.045,15.723-14.378,33.707-14.378,53.056c0,36.352,18.709,68.565,46.635,87.232c-16.875-0.32-33.408-5.227-47.424-12.928v1.152
	c0,51.008,36.374,93.376,84.096,103.147c-8.555,2.347-17.856,3.456-27.52,3.456c-6.72,0-13.504-0.384-19.861-1.792
	c13.589,41.557,52.203,72.128,98.069,73.131c-35.712,27.925-81.067,44.757-130.155,44.757c-8.597,0-16.854-0.384-25.109-1.429
	C46.507,446.869,101.589,464,161.024,464C346.262,464,466.986,309.461,459.392,151.744L459.392,151.744z"/>
</svg>
